<svg width="1325" height="245" viewBox="0 0 1325 245" fill="none" xmlns="http://www.w3.org/2000/svg">
<path d="M102.92 244.09L0 184.66V65.8203L114.86 132.13C106.93 150.94 102.93 173.7 102.93 201V244.09H102.92Z" fill="#52F756"/>
<path d="M3.68994 59.42L106.62 0L209.54 59.42C163.59 71.73 133.87 93.4 117.95 125.39L3.68994 59.42Z" fill="#808A96"/>
<path d="M110.31 201V244.09L134.93 229.87V201C134.93 196.6 135.05 192.34 135.28 188.24C135.51 184.14 135.87 180.18 136.33 176.39C136.8 172.6 137.38 168.96 138.07 165.49C138.76 162.02 139.57 158.71 140.48 155.56C141.39 152.41 142.41 149.42 143.52 146.59C144.64 143.75 145.86 141.07 147.18 138.51C148.5 135.95 149.92 133.53 151.46 131.22C152.99 128.91 154.64 126.7 156.41 124.58C158.18 122.46 160.07 120.43 162.12 118.47C164.17 116.51 166.35 114.62 168.71 112.79C171.07 110.96 173.59 109.2 176.29 107.49C179 105.79 181.88 104.15 184.97 102.57C188.05 101 191.32 99.4899 194.78 98.0499C198.24 96.6099 201.9 95.2498 205.74 93.9698C208.16 93.1598 210.66 92.3798 213.23 91.6298V66.0898C212.63 66.2498 212.04 66.3998 211.45 66.5598C206.79 67.8098 202.28 69.1599 197.93 70.6199C193.58 72.0799 189.38 73.6398 185.35 75.3098C181.32 76.9798 177.45 78.7598 173.76 80.6498C170.07 82.5398 166.53 84.5398 163.18 86.6498C159.82 88.7598 156.63 90.9898 153.62 93.3298C150.6 95.6698 147.75 98.1298 145.07 100.7C142.39 103.28 139.87 105.97 137.52 108.78C135.17 111.6 132.98 114.53 130.95 117.6C128.92 120.67 127.05 123.86 125.33 127.18C123.61 130.5 122.05 133.96 120.63 137.54C119.22 141.13 117.95 144.85 116.84 148.7C115.73 152.55 114.76 156.53 113.94 160.65C113.12 164.76 112.44 169 111.9 173.37C111.36 177.73 110.97 182.22 110.7 186.83C110.44 191.44 110.31 196.16 110.31 200.99V201Z" fill="black"/>
<path d="M863.55 68.8103C863.55 61.7803 857.85 56.0703 850.81 56.0703C843.77 56.0703 838.07 61.7703 838.07 68.8103C838.07 75.8503 843.77 81.5503 850.81 81.5503C857.85 81.5503 863.55 75.8503 863.55 68.8103Z" fill="black"/>
<path d="M394.78 103.821C388.79 103.821 382.95 104.911 377.26 107.111C371.57 109.301 366.45 112.581 361.93 116.961C357.4 121.341 353.75 126.891 350.98 133.611C348.2 140.331 346.82 148.221 346.82 157.261C346.82 164.851 347.92 171.901 350.11 178.401C352.3 184.901 355.58 190.481 359.97 195.151C364.35 199.831 369.86 203.511 376.5 206.211C383.14 208.911 390.85 210.261 399.61 210.261C406.77 210.261 413.19 209.601 418.89 208.291C424.58 206.971 428.94 205.201 431.12 204.031L428.3 189.241C425.96 190.411 422.53 191.501 418.01 192.521C413.48 193.551 408.01 194.051 401.58 194.051C390.34 194.051 381.61 191.311 375.41 185.831C369.2 180.361 365.74 172.361 365 161.851H437.72V155.501C437.72 138.131 434 125.171 426.55 116.621C419.1 108.081 408.51 103.801 394.79 103.801M365.44 147.171C365.88 143.671 366.83 140.241 368.29 136.881C369.75 133.521 371.72 130.531 374.21 127.901C376.69 125.271 379.65 123.161 383.08 121.551C386.51 119.951 390.34 119.141 394.58 119.141C402.03 119.141 408.01 121.661 412.54 126.701C417.06 131.741 419.33 138.561 419.33 147.181H365.45L365.44 147.171Z" fill="black"/>
<path d="M1057.58 104.071C1055.8 103.991 1054.29 104.071 1054.29 104.071C1042.33 104.601 1033.17 108.081 1026.8 114.521C1019.87 121.531 1016.39 132.781 1016.39 148.261V207.861H1034.36V151.551C1034.36 144.981 1034.94 139.651 1036.11 135.561C1037.28 131.471 1038.93 128.291 1041.04 126.031C1043.16 123.771 1045.71 122.201 1048.71 121.321C1048.71 121.321 1055.94 119.221 1063.17 121.321C1066.16 122.191 1068.72 123.771 1070.84 126.031C1072.96 128.301 1074.6 131.471 1075.77 135.561C1076.94 139.651 1077.52 144.981 1077.52 151.551V207.861H1095.49V148.261C1095.49 132.781 1092.01 121.531 1085.08 114.521C1078.71 108.081 1069.54 104.601 1057.58 104.071Z" fill="black"/>
<path d="M535.22 118.71C531.5 114.04 526.93 110.39 521.53 107.76C516.13 105.13 509.99 103.82 503.13 103.82C498.02 103.82 493.38 104.52 489.22 105.9C485.06 107.29 481.88 108.63 479.69 109.95V56.0703H461.51V205.01C465.3 206.18 470.34 207.35 476.62 208.52C482.9 209.69 490.05 210.27 498.09 210.27C505.39 210.27 512.03 209.03 518.02 206.55C524.01 204.07 529.12 200.53 533.35 195.93C537.58 191.33 540.87 185.75 543.21 179.18C545.54 172.61 546.72 165.23 546.72 157.06C546.72 148.89 545.73 141.98 543.76 135.48C541.79 128.98 538.94 123.4 535.22 118.73M519.56 184.99C513.86 191.2 505.98 194.3 495.9 194.3C493.42 194.3 490.79 194.12 488.01 193.75C485.24 193.39 482.46 192.84 479.69 192.11V127.69C481.73 125.79 484.73 124 488.67 122.32C492.61 120.65 496.7 119.8 500.94 119.8C505.76 119.8 509.88 120.75 513.31 122.65C516.74 124.55 519.55 127.14 521.74 130.42C523.93 133.71 525.53 137.65 526.56 142.25C527.58 146.85 528.09 151.78 528.09 157.03C528.09 169.44 525.24 178.75 519.55 184.95" fill="black"/>
<path d="M614.7 103.821C608.71 103.821 602.87 104.911 597.18 107.111C591.49 109.301 586.37 112.581 581.85 116.961C577.32 121.341 573.67 126.891 570.9 133.611C568.12 140.331 566.73 148.221 566.73 157.261C566.73 164.851 567.83 171.901 570.02 178.401C572.21 184.901 575.5 190.481 579.88 195.151C584.26 199.831 589.77 203.511 596.41 206.211C603.05 208.911 610.76 210.261 619.52 210.261C626.67 210.261 633.1 209.601 638.8 208.291C644.49 206.971 648.84 205.201 651.03 204.031L648.21 189.241C645.87 190.411 642.44 191.501 637.92 192.521C633.39 193.551 627.91 194.051 621.49 194.051C610.24 194.051 601.52 191.311 595.32 185.831C589.11 180.361 585.65 172.361 584.92 161.851H657.64V155.501C657.64 138.131 653.92 125.171 646.47 116.621C639.02 108.081 628.43 103.801 614.71 103.801M585.36 147.171C585.8 143.671 586.75 140.241 588.21 136.881C589.67 133.521 591.64 130.531 594.12 127.901C596.6 125.271 599.56 123.161 602.99 121.551C606.42 119.951 610.25 119.141 614.49 119.141C621.94 119.141 627.92 121.661 632.45 126.701C636.97 131.741 639.24 138.561 639.24 147.181H585.36V147.171Z" fill="black"/>
<path d="M982.33 118.381C978.24 113.781 973.35 110.211 967.65 107.651C961.96 105.101 955.75 103.811 949.03 103.811C942.31 103.811 936.36 105.091 930.74 107.651C925.12 110.211 920.26 113.781 916.17 118.381C912.08 122.981 908.91 128.571 906.64 135.141C904.38 141.711 903.25 149.011 903.25 157.041C903.25 165.071 904.38 172.341 906.64 178.831C908.9 185.331 912.08 190.911 916.17 195.591C920.26 200.271 925.12 203.881 930.74 206.431C936.36 208.981 942.45 210.271 949.03 210.271C955.61 210.271 961.95 208.991 967.65 206.431C973.34 203.881 978.24 200.261 982.33 195.591C986.42 190.921 989.59 185.331 991.86 178.831C994.12 172.341 995.25 165.071 995.25 157.041C995.25 149.011 994.12 141.711 991.86 135.141C989.59 128.571 986.42 122.991 982.33 118.381ZM969.19 184.091C964.22 190.741 957.51 194.061 949.04 194.061C940.57 194.061 934.11 190.741 929.22 184.091C924.33 177.441 921.88 168.431 921.88 157.041C921.88 145.651 924.32 136.421 929.22 129.771C934.11 123.131 940.72 119.801 949.04 119.801C957.36 119.801 964.23 123.121 969.19 129.771C974.15 136.421 976.64 145.511 976.64 157.041C976.64 168.571 974.15 177.441 969.19 184.091Z" fill="black"/>
<path d="M1184.53 157.701C1180 155.071 1175.11 152.851 1169.86 151.021C1164.6 149.201 1159.71 147.411 1155.19 145.661C1150.66 143.901 1146.9 141.971 1143.91 139.851C1140.92 137.741 1139.42 135.141 1139.42 132.071C1139.42 123.451 1147.3 119.151 1163.07 119.151C1165.84 119.151 1168.73 119.301 1171.72 119.591C1174.71 119.881 1177.52 120.281 1180.15 120.791C1182.78 121.311 1185.11 121.891 1187.16 122.541C1189.2 123.201 1190.81 123.821 1191.98 124.401L1196.72 109.041C1192.48 107.721 1185.95 105.821 1180.04 105.021C1174.13 104.221 1168.4 103.811 1162.85 103.811C1148.69 103.811 1138.28 106.551 1131.64 112.031C1124.99 117.501 1121.67 124.331 1121.67 132.511C1121.67 138.351 1123.17 143.101 1126.16 146.751C1129.15 150.401 1132.88 153.471 1137.33 155.951C1141.78 158.431 1146.64 160.511 1151.89 162.191C1157.15 163.871 1162 165.591 1166.46 167.331C1170.91 169.091 1174.63 171.131 1177.63 173.471C1180.62 175.811 1182.12 178.801 1182.12 182.451C1182.12 190.781 1173.87 194.941 1157.37 194.941C1150.94 194.941 1144.92 194.181 1139.3 192.641C1133.68 191.111 1130.04 189.941 1124.93 187.611L1119.69 203.261C1124.95 205.601 1130.5 207.351 1136.34 208.521C1142.18 209.691 1148.6 210.271 1155.62 210.271C1171.09 210.271 1182.41 207.751 1189.57 202.711C1196.72 197.671 1200.3 190.561 1200.3 181.351C1200.3 175.661 1198.8 170.951 1195.81 167.221C1192.82 163.501 1189.05 160.321 1184.53 157.691" fill="black"/>
<path d="M269.05 120.011C255.86 134.991 256.18 153.461 256.39 169.231L256.44 207.861H274.49L274.44 168.991C274.27 155.991 274.01 141.701 282.6 131.941C292.59 120.601 309.04 117.671 327.64 125.311L335.39 108.961C309.67 98.4007 284.12 102.901 269.05 120.011Z" fill="black"/>
<path d="M800.54 194.06C797.76 194.06 795.36 193.7 793.31 192.97C791.26 192.24 789.55 190.89 788.16 188.91C786.77 186.94 785.75 184.35 785.09 181.14C784.43 177.93 784.11 173.77 784.11 168.65V56.0703H742.35V71.4003H766.15V168.65C766.15 175.52 766.66 181.54 767.68 186.72C768.7 191.9 770.45 196.25 772.93 199.75C775.41 203.26 778.77 205.88 783.01 207.63C787.25 209.39 792.57 210.26 799 210.26C801.77 210.26 804.44 210.04 807 209.6C809.11 209.24 811.75 208.82 813.62 208.36V192.35C813.43 192.41 813.26 192.46 813.06 192.52C809.41 193.55 804.77 194.06 800.54 194.06Z" fill="black"/>
<path d="M876.22 194.06C873.45 194.06 871.04 193.7 868.99 192.97C866.94 192.24 865.23 190.89 863.84 188.91C862.45 186.94 861.43 184.35 860.77 181.14C860.11 177.93 859.79 173.77 859.79 168.65V104.03H841.83V168.65C841.83 175.52 842.34 181.54 843.36 186.72C844.38 191.9 846.13 196.25 848.61 199.75C851.09 203.26 854.45 205.88 858.69 207.63C862.92 209.39 868.25 210.26 874.68 210.26C877.45 210.26 880.12 210.04 882.68 209.6C884.79 209.24 887.44 208.82 889.3 208.36V192.35C889.11 192.41 888.94 192.46 888.74 192.52C885.09 193.55 880.45 194.06 876.22 194.06Z" fill="black"/>
<path d="M724.94 194.06C722.16 194.06 719.76 193.7 717.71 192.97C715.66 192.24 713.95 190.89 712.56 188.91C711.17 186.94 710.15 184.35 709.5 181.14C708.84 177.93 708.51 173.77 708.51 168.65V56.0703H666.75V71.4003H690.55V168.65C690.55 175.52 691.06 181.54 692.08 186.72C693.1 191.9 694.85 196.25 697.33 199.75C699.81 203.26 703.17 205.88 707.41 207.63C711.65 209.39 716.97 210.26 723.4 210.26C726.17 210.26 728.84 210.04 731.39 209.6C733.5 209.24 736.15 208.82 738.01 208.36V192.35C737.82 192.41 737.65 192.46 737.45 192.52C733.8 193.55 729.16 194.06 724.93 194.06" fill="black"/>
<path d="M1324.25 228.75H1218.24V244.08H1324.25V228.75Z" fill="black"/>
</svg>
